<mxfile host="Electron" modified="2023-11-30T20:07:13.431Z" agent="Mozilla/5.0 (Windows NT 10.0; Win64; x64) AppleWebKit/537.36 (KHTML, like Gecko) draw.io/22.0.3 Chrome/114.0.5735.289 Electron/25.8.4 Safari/537.36" etag="vgzBpoknODiMhXcJohs1" version="22.0.3" type="device">
  <diagram name="Page-1" id="1A2gPPfQfYN7-np6HzHH">
    <mxGraphModel dx="1714" dy="516" grid="1" gridSize="10" guides="1" tooltips="1" connect="1" arrows="1" fold="1" page="1" pageScale="1" pageWidth="850" pageHeight="1100" math="0" shadow="0">
      <root>
        <mxCell id="0" />
        <mxCell id="1" parent="0" />
        <mxCell id="VqZ4n8kQQ8ND7D1PAzpy-7" value="" style="rounded=1;whiteSpace=wrap;html=1;shadow=0;" parent="1" vertex="1">
          <mxGeometry x="190" y="10" width="120" height="60" as="geometry" />
        </mxCell>
        <mxCell id="VqZ4n8kQQ8ND7D1PAzpy-3" value="Home&amp;nbsp; &amp;nbsp; &amp;nbsp; &amp;nbsp; &amp;nbsp; &amp;nbsp; &amp;nbsp; &amp;nbsp; &amp;nbsp; &amp;nbsp; &amp;nbsp; Old&amp;nbsp; School Retro&amp;nbsp; &amp;nbsp; &amp;nbsp; &amp;nbsp; &amp;nbsp; &amp;nbsp; &amp;nbsp; &amp;nbsp; &amp;nbsp; &amp;nbsp; &amp;nbsp; &amp;nbsp; &amp;nbsp; &amp;nbsp;New and Upcoming&amp;nbsp; &amp;nbsp; &amp;nbsp; &amp;nbsp; &amp;nbsp; &amp;nbsp; &amp;nbsp; &amp;nbsp; &amp;nbsp;&amp;nbsp;" style="rounded=0;whiteSpace=wrap;html=1;align=center;" parent="1" vertex="1">
          <mxGeometry x="-1" width="850" height="80" as="geometry" />
        </mxCell>
        <mxCell id="VqZ4n8kQQ8ND7D1PAzpy-4" value="" style="ellipse;whiteSpace=wrap;html=1;" parent="1" vertex="1">
          <mxGeometry x="20" width="120" height="80" as="geometry" />
        </mxCell>
        <mxCell id="VqZ4n8kQQ8ND7D1PAzpy-6" value="&amp;nbsp; &amp;nbsp; &amp;nbsp; &amp;nbsp;Game Reviver @ Deon Johannes&amp;nbsp; &amp;nbsp; &amp;nbsp; &amp;nbsp; &amp;nbsp; &amp;nbsp; &amp;nbsp; &amp;nbsp; &amp;nbsp; &amp;nbsp; &amp;nbsp; &amp;nbsp; &amp;nbsp; &amp;nbsp; &amp;nbsp; &amp;nbsp; &amp;nbsp; &amp;nbsp; &amp;nbsp; &amp;nbsp; &amp;nbsp; &amp;nbsp; &amp;nbsp; &amp;nbsp; &amp;nbsp; &amp;nbsp; &amp;nbsp; &amp;nbsp; &amp;nbsp; &amp;nbsp; &amp;nbsp; Siteplan&amp;nbsp; &amp;nbsp; &amp;nbsp; &amp;nbsp; &amp;nbsp; &amp;nbsp; &amp;nbsp; &amp;nbsp; &amp;nbsp; &amp;nbsp; &amp;nbsp; &amp;nbsp; &amp;nbsp; &amp;nbsp; &amp;nbsp; &amp;nbsp; &amp;nbsp; &amp;nbsp; &amp;nbsp; &amp;nbsp; &amp;nbsp; &amp;nbsp; &amp;nbsp; &amp;nbsp; &amp;nbsp; &amp;nbsp; &amp;nbsp; &amp;nbsp; &amp;nbsp; &amp;nbsp; &amp;nbsp; &amp;nbsp; &amp;nbsp; &amp;nbsp; &amp;nbsp; &amp;nbsp; &amp;nbsp; &amp;nbsp; &amp;nbsp; &amp;nbsp; &amp;nbsp; &amp;nbsp; &amp;nbsp; &amp;nbsp; &amp;nbsp;&amp;nbsp;" style="rounded=0;whiteSpace=wrap;html=1;align=left;" parent="1" vertex="1">
          <mxGeometry x="1" y="1000" width="850" height="100" as="geometry" />
        </mxCell>
        <mxCell id="VqZ4n8kQQ8ND7D1PAzpy-9" value="" style="endArrow=none;html=1;rounded=0;entryX=1;entryY=0;entryDx=0;entryDy=0;" parent="1" target="VqZ4n8kQQ8ND7D1PAzpy-4" edge="1">
          <mxGeometry width="50" height="50" relative="1" as="geometry">
            <mxPoint x="40" y="70" as="sourcePoint" />
            <mxPoint x="105" y="15" as="targetPoint" />
          </mxGeometry>
        </mxCell>
        <mxCell id="VqZ4n8kQQ8ND7D1PAzpy-11" value="" style="endArrow=none;html=1;rounded=0;entryX=1;entryY=1;entryDx=0;entryDy=0;exitX=0;exitY=0;exitDx=0;exitDy=0;" parent="1" source="VqZ4n8kQQ8ND7D1PAzpy-4" target="VqZ4n8kQQ8ND7D1PAzpy-4" edge="1">
          <mxGeometry width="50" height="50" relative="1" as="geometry">
            <mxPoint x="50" y="70" as="sourcePoint" />
            <mxPoint x="110" y="10" as="targetPoint" />
          </mxGeometry>
        </mxCell>
        <mxCell id="VqZ4n8kQQ8ND7D1PAzpy-16" value="h1" style="rounded=1;whiteSpace=wrap;html=1;" parent="1" vertex="1">
          <mxGeometry y="100" width="850" height="60" as="geometry" />
        </mxCell>
        <mxCell id="VqZ4n8kQQ8ND7D1PAzpy-17" value="Text" style="text;html=1;align=center;verticalAlign=middle;resizable=0;points=[];autosize=1;strokeColor=none;fillColor=none;" parent="1" vertex="1">
          <mxGeometry x="360" y="208" width="40" height="30" as="geometry" />
        </mxCell>
        <mxCell id="VqZ4n8kQQ8ND7D1PAzpy-23" value="Paragraph" style="rounded=0;whiteSpace=wrap;html=1;" parent="1" vertex="1">
          <mxGeometry y="200" width="850" height="80" as="geometry" />
        </mxCell>
        <mxCell id="VqZ4n8kQQ8ND7D1PAzpy-25" value="" style="rounded=0;whiteSpace=wrap;html=1;" parent="1" vertex="1">
          <mxGeometry x="30" y="320" width="470" height="210" as="geometry" />
        </mxCell>
        <mxCell id="VqZ4n8kQQ8ND7D1PAzpy-28" value="Paragraph" style="rounded=0;whiteSpace=wrap;html=1;" parent="1" vertex="1">
          <mxGeometry x="11" y="860" width="819" height="50" as="geometry" />
        </mxCell>
        <mxCell id="VqZ4n8kQQ8ND7D1PAzpy-32" value="" style="endArrow=none;html=1;rounded=0;exitX=0;exitY=1;exitDx=0;exitDy=0;entryX=1;entryY=0;entryDx=0;entryDy=0;" parent="1" source="VqZ4n8kQQ8ND7D1PAzpy-25" target="VqZ4n8kQQ8ND7D1PAzpy-25" edge="1">
          <mxGeometry width="50" height="50" relative="1" as="geometry">
            <mxPoint x="350" y="370" as="sourcePoint" />
            <mxPoint x="400" y="320" as="targetPoint" />
          </mxGeometry>
        </mxCell>
        <mxCell id="VqZ4n8kQQ8ND7D1PAzpy-33" value="" style="endArrow=none;html=1;rounded=0;entryX=1;entryY=1;entryDx=0;entryDy=0;exitX=0;exitY=0;exitDx=0;exitDy=0;" parent="1" source="VqZ4n8kQQ8ND7D1PAzpy-25" target="VqZ4n8kQQ8ND7D1PAzpy-25" edge="1">
          <mxGeometry width="50" height="50" relative="1" as="geometry">
            <mxPoint x="300" y="440" as="sourcePoint" />
            <mxPoint x="350" y="390" as="targetPoint" />
          </mxGeometry>
        </mxCell>
        <mxCell id="yUll7H5ExB23uH4SAmas-3" value="" style="rounded=0;whiteSpace=wrap;html=1;" parent="1" vertex="1">
          <mxGeometry x="340" y="570" width="420" height="220" as="geometry" />
        </mxCell>
        <mxCell id="yUll7H5ExB23uH4SAmas-6" value="" style="endArrow=none;html=1;rounded=0;entryX=1;entryY=0;entryDx=0;entryDy=0;exitX=0;exitY=1;exitDx=0;exitDy=0;" parent="1" source="yUll7H5ExB23uH4SAmas-3" target="yUll7H5ExB23uH4SAmas-3" edge="1">
          <mxGeometry width="50" height="50" relative="1" as="geometry">
            <mxPoint x="410" y="660" as="sourcePoint" />
            <mxPoint x="460" y="610" as="targetPoint" />
          </mxGeometry>
        </mxCell>
        <mxCell id="yUll7H5ExB23uH4SAmas-7" value="" style="endArrow=none;html=1;rounded=0;entryX=0.975;entryY=0.994;entryDx=0;entryDy=0;entryPerimeter=0;exitX=0.011;exitY=0.041;exitDx=0;exitDy=0;exitPerimeter=0;" parent="1" target="yUll7H5ExB23uH4SAmas-3" edge="1" source="yUll7H5ExB23uH4SAmas-3">
          <mxGeometry width="50" height="50" relative="1" as="geometry">
            <mxPoint x="360" y="558" as="sourcePoint" />
            <mxPoint x="412.2222222222222" y="626" as="targetPoint" />
          </mxGeometry>
        </mxCell>
        <mxCell id="LgFmigv9e_Kz_EdHM4O4-11" value="" style="rounded=0;whiteSpace=wrap;html=1;" vertex="1" parent="1">
          <mxGeometry x="670" y="1020" width="50" height="50" as="geometry" />
        </mxCell>
        <mxCell id="LgFmigv9e_Kz_EdHM4O4-12" value="" style="rounded=0;whiteSpace=wrap;html=1;" vertex="1" parent="1">
          <mxGeometry x="750" y="1020" width="50" height="50" as="geometry" />
        </mxCell>
        <mxCell id="LgFmigv9e_Kz_EdHM4O4-14" value="" style="endArrow=none;html=1;rounded=0;" edge="1" parent="1">
          <mxGeometry width="50" height="50" relative="1" as="geometry">
            <mxPoint x="670" y="1070" as="sourcePoint" />
            <mxPoint x="720" y="1020" as="targetPoint" />
          </mxGeometry>
        </mxCell>
        <mxCell id="LgFmigv9e_Kz_EdHM4O4-15" value="" style="endArrow=none;html=1;rounded=0;entryX=1;entryY=1;entryDx=0;entryDy=0;exitX=0;exitY=0;exitDx=0;exitDy=0;" edge="1" parent="1" source="LgFmigv9e_Kz_EdHM4O4-11" target="LgFmigv9e_Kz_EdHM4O4-11">
          <mxGeometry width="50" height="50" relative="1" as="geometry">
            <mxPoint x="650" y="1060" as="sourcePoint" />
            <mxPoint x="700" y="1010" as="targetPoint" />
          </mxGeometry>
        </mxCell>
        <mxCell id="LgFmigv9e_Kz_EdHM4O4-17" value="" style="endArrow=none;html=1;rounded=0;" edge="1" parent="1">
          <mxGeometry width="50" height="50" relative="1" as="geometry">
            <mxPoint x="750" y="1070" as="sourcePoint" />
            <mxPoint x="800" y="1020" as="targetPoint" />
          </mxGeometry>
        </mxCell>
        <mxCell id="LgFmigv9e_Kz_EdHM4O4-19" value="" style="endArrow=none;html=1;rounded=0;entryX=1;entryY=1;entryDx=0;entryDy=0;" edge="1" parent="1" target="LgFmigv9e_Kz_EdHM4O4-12">
          <mxGeometry width="50" height="50" relative="1" as="geometry">
            <mxPoint x="750" y="1020" as="sourcePoint" />
            <mxPoint x="800" y="970" as="targetPoint" />
          </mxGeometry>
        </mxCell>
        <mxCell id="LgFmigv9e_Kz_EdHM4O4-20" value="Paragraph" style="rounded=0;whiteSpace=wrap;html=1;" vertex="1" parent="1">
          <mxGeometry x="10" y="930" width="820" height="50" as="geometry" />
        </mxCell>
      </root>
    </mxGraphModel>
  </diagram>
</mxfile>
